<?xml version="1.0" standalone="no"?>
<!DOCTYPE svg PUBLIC "-//W3C//DTD SVG 1.1//EN" "http://www.w3.org/Graphics/SVG/1.1/DTD/svg11.dtd" >
<svg xmlns="http://www.w3.org/2000/svg">
<metadata>
Created by FontForge 20120731 at Thu Dec 10 13:31:31 2015
 By Ads
</metadata>
<defs>
<font id="iconfont" horiz-adv-x="1024" >
  <font-face 
    font-family="iconfont"
    font-weight="500"
    font-stretch="normal"
    units-per-em="1024"
    panose-1="2 0 6 3 0 0 0 0 0 0"
    ascent="896"
    descent="-128"
    x-height="792"
    bbox="0 -212.483 1024.08 896"
    underline-thickness="50"
    underline-position="-100"
    unicode-range="U+0078-E626"
  />
<missing-glyph horiz-adv-x="374" 
d="M34 0v682h272v-682h-272zM68 34h204v614h-204v-614z" />
    <glyph glyph-name=".notdef" horiz-adv-x="374" 
d="M34 0v682h272v-682h-272zM68 34h204v614h-204v-614z" />
    <glyph glyph-name=".null" horiz-adv-x="0" 
 />
    <glyph glyph-name="nonmarkingreturn" horiz-adv-x="341" 
 />
    <glyph glyph-name="x" unicode="x" horiz-adv-x="1001" 
d="M281 543q-27 -1 -53 -1h-83q-18 0 -36.5 -6t-32.5 -18.5t-23 -32t-9 -45.5v-76h912v41q0 16 -0.5 30t-0.5 18q0 13 -5 29t-17 29.5t-31.5 22.5t-49.5 9h-133v-97h-438v97zM955 310v-52q0 -23 0.5 -52t0.5 -58t-10.5 -47.5t-26 -30t-33 -16t-31.5 -4.5q-14 -1 -29.5 -0.5
t-29.5 0.5h-32l-45 128h-439l-44 -128h-29h-34q-20 0 -45 1q-25 0 -41 9.5t-25.5 23t-13.5 29.5t-4 30v167h911zM163 247q-12 0 -21 -8.5t-9 -21.5t9 -21.5t21 -8.5q13 0 22 8.5t9 21.5t-9 21.5t-22 8.5zM316 123q-8 -26 -14 -48q-5 -19 -10.5 -37t-7.5 -25t-3 -15t1 -14.5
t9.5 -10.5t21.5 -4h37h67h81h80h64h36q23 0 34 12t2 38q-5 13 -9.5 30.5t-9.5 34.5q-5 19 -11 39h-368zM336 498v228q0 11 2.5 23t10 21.5t20.5 15.5t34 6h188q31 0 51.5 -14.5t20.5 -52.5v-227h-327z" />
    <glyph glyph-name="uniE600" unicode="&#xe600;" 
d="M925 426l-374 128q-17 7 -20.5 7t-20.5 -7l-376 -127q-17 -6 -17 -15t18 -15l89 -31q-27 -26 -34.5 -54t-8.5 -70q-26 -10 -26 -38q0 -12 6 -21.5t17 -15.5q-12 -85 -78 -164q19 -14 31.5 -21t28.5 -13q35 15 50 48t13.5 71t-3.5 83q17 12 17 33q0 5 -1.5 10t-4 9.5
t-6 8.5t-8.5 6q3 79 46 112q0 1 0.5 1.5t1.5 0.5l257 104q7 3 14 0t10 -10v-1q2 -4 1.5 -7.5t-1.5 -7t-4 -6t-6 -3.5l-217 -87l194 -66q18 -6 21 -6t21 6l370 127q12 4 16 10t-0.5 11.5t-15.5 9.5zM513 219l-235 79v-59q19 -18 19 -46q0 -6 -1 -11.5t-3 -11t-5 -10t-7 -9.5
q6 -17 17 -21q68 -38 150 -50t167.5 2.5t160.5 55.5q9 7 14.5 15.5t5.5 16.5v132l-242 -83q-17 -7 -20.5 -7t-20.5 7z" />
    <glyph glyph-name="uniE601" unicode="&#xe601;" 
d="M349 354h-152q-17 0 -33 5.5t-29 15.5t-23 23t-15 29t-5 33v153q0 44 31 75t74 31h152q29 0 53 -14t38.5 -38.5t14.5 -53.5v-153q0 -44 -31 -75t-75 -31zM197 668q-14 0 -27 -7.5t-20 -20t-7 -27.5v-153q0 -22 16 -38t38 -16h152q15 0 27.5 7t19.5 19.5t7 27.5v153
q0 9 -2.5 17.5t-7.5 15t-12 11.5t-15 8t-17 3h-152zM349 -63h-152q-28 0 -52.5 14t-38.5 38.5t-14 52.5v154q0 43 31 74t74 31h152q44 0 75 -31t31 -74v-154q0 -43 -31 -74t-75 -31zM197 250q-14 0 -27 -7t-20 -20t-7 -27v-154q0 -22 16 -38t38 -16h152q22 0 38 16t16 38
v154q0 22 -16 38t-38 16h-152zM762 354h-152q-43 0 -74 31t-31 75v153q0 44 31 75t74 31h152q29 0 53 -14t38.5 -38.5t14.5 -53.5v-153q0 -21 -8.5 -40.5t-22.5 -34t-34 -23t-41 -8.5zM610 668q-22 0 -38 -16t-16 -39v-153q0 -7 2 -14t5.5 -13t8.5 -11t11 -8.5t13 -5.5
t14 -2h152q23 0 39 16t16 38v153q0 23 -16 39t-39 16h-152zM697.5 -63q-75.5 0 -129 53.5t-53.5 128.5t53.5 128.5t129 53.5t129 -53.5t53.5 -128.5t-53.5 -128.5t-129 -53.5zM698 250q-54 0 -92.5 -38.5t-38.5 -92.5t38.5 -92.5t92.5 -38.5t92.5 38.5t38.5 92.5
q0 36 -17.5 66t-48 47.5t-65.5 17.5zM907.5 -133q-10.5 0 -18.5 7l-107 108q-8 8 -8 18.5t7.5 18t18 7.5t18.5 -8l108 -107q7 -8 7 -18.5t-7.5 -18t-18 -7.5z" />
    <glyph glyph-name="uniE602" unicode="&#xe602;" 
d="M722 676q-68 0 -127 -39.5t-83 -100.5q-23 61 -82 100.5t-127 39.5q-89 0 -149.5 -60t-60.5 -149q0 -26 6.5 -52t14.5 -49t27 -52t33.5 -50t45.5 -54.5t51.5 -54.5t62.5 -60t66.5 -61.5t75.5 -69.5q24 -21 36 -33q12 12 36 33q51 47 76 69.5t67 61.5t62 60t51 54.5
t45.5 54.5t33.5 50t27.5 52t14.5 49t6 52q0 35 -10.5 67t-29.5 58t-44.5 45t-57.5 29t-67 10zM508 72q-1 -2 -3 -4l-4 -2q-2 -2 -4.5 -3t-4.5 -1l-6 -2h-4.5t-5 0.5t-4.5 1.5l-6 2q-2 1 -4 2.5t-4 3.5q-69 63 -114.5 107.5t-84.5 89.5t-64 84q-8 13 -5 27.5t15 22.5
q7 4 14 5t13.5 -0.5t12.5 -5.5t10 -10q34 -53 92.5 -114t158.5 -153q11 -10 12 -25t-10 -26z" />
    <glyph glyph-name="uniE603" unicode="&#xe603;" 
d="M935 378q-15 22 -33 44l-1 1v0l-11 13v1q-23 26 -42 44q-33 31 -53 31h-155h-7q-3 0 -6 -1v69q0 16 -8 30t-22 22t-30 8h-456q-16 0 -30 -8t-22 -22t-8 -30v-474q0 -10 3 -19t8.5 -16.5t13 -13t16.5 -9t19 -3.5h70q5 -25 21.5 -46t40.5 -33t50 -12q41 0 72.5 26t40.5 65
h161q20 0 36 13q16 -13 37 -13h15q5 -25 21.5 -46t40 -33t50.5 -12q41 0 72.5 26t40.5 65h33q25 0 42.5 18t17.5 43v191q0 8 -3.5 19.5t-15.5 31.5q-8 14 -19 30zM293 2q-28 0 -47.5 19.5t-19.5 47.5t19.5 48t47.5 20t48 -20t20 -48q0 -40 -36 -59q-15 -8 -32 -8zM579 452
v-346q0 -3 -1 -5t-2.5 -4t-4 -3t-4.5 -1h-161q-8 39 -38.5 64.5t-70.5 26.5h-1v0v0v0v0h-1v0v0v0v0h-1v0v0v0v0v0v0h-1v0v0v0h-1v0v0h-1v0v0v0v0v0h-1v0v0v0q-40 -1 -70.5 -26.5t-38.5 -64.5h-70q-5 0 -9 3.5t-4 9.5v474q2 11 13 12h456q2 0 4.5 -1t4 -2.5t2.5 -4t1 -4.5
v-128zM767 2q-28 0 -47.5 19.5t-19.5 47.5q0 19 9 34.5t24.5 24.5t33.5 9q28 0 48 -20t20 -48q0 -40 -36 -59q-15 -8 -32 -8zM926 106q0 -5 -4 -9t-9 -4h-33q-8 37 -37 62.5t-67 28.5v0h-1v0h-1v0v0v0h-1v0h-1v0v0v0v0v0v0h-1v0v0v0v0v0v0v0v0h-1v0v0v0v0h-1v0v0v0v0h-1v0v0
v0v0v0h-1v0v0v0h-1v0v0v0v0h-1v0v0v0v0h-1v0v0v0v0v0v0v0h-1v0h-1v0v0h-1h-1v0h-1v0v0v0v0v0v0v0v0h-1q-25 -2 -47 -14.5t-36.5 -32.5t-19.5 -44h-15q-12 2 -13 13v346q0 3 1.5 6t4.5 5t7 2h152q9 -5 27 -22l4 -4h-74q-25 0 -42.5 -17.5t-17.5 -42.5v-73q0 -16 8 -30t22 -22
t30 -8h177v-140zM926 294h-177q-5 0 -9 3.5t-4 8.5v73q0 2 1 4t2 3.5t2.5 3t3.5 2t4 0.5h116q8 -11 16 -21l1 -1q7 -9 13 -18l12 -18l3 2l-3 -2l7 4l-7 -4l3 -5q4 -7 7 -12.5t4.5 -8.5t2.5 -6t2 -4v-1v-3z" />
    <glyph glyph-name="uniE604" unicode="&#xe604;" 
d="M927 603q-9 2 -17 -0.5t-13.5 -8.5t-7.5 -14l-9 -39h-582l-17 79q-2 11 -11 18t-20 7h-145q-14 0 -23 -9t-9 -22.5t9 -22.5t23 -9h119l82 -384q2 -7 6.5 -13t11 -9t13.5 -3h496q11 0 20 7t11 17l86 368q3 13 -4 24t-19 14zM511 382v96h154v-96h-154zM665 344v-108h-154
v108h154zM703 478h162l-23 -96h-139v96zM473 478v-96h-141l-21 96h162zM340 344h133v-108h-110zM808 236h-105v108h131zM433 96q-19 0 -35.5 -9.5t-26 -25.5t-9.5 -35q0 -30 21 -50.5t50 -20.5t50 20.5t21 50t-21 50t-50 20.5zM737 96q-19 0 -35.5 -9.5t-26 -25.5t-9.5 -35
q0 -30 21 -50.5t50 -20.5t50 20.5t21 50.5q0 19 -9.5 35t-26 25.5t-35.5 9.5z" />
    <glyph glyph-name="uniE605" unicode="&#xe605;" 
d="M138 -63q-24 0 -40.5 17t-16.5 40v629q0 23 16.5 40t40.5 17h69q8 0 13.5 5.5t5.5 13.5q0 2 -0.5 4t-1.5 4t-2 3l-4 4q-1 1 -3 2t-4 1.5t-4 0.5h-69q-40 0 -67.5 -28t-27.5 -67v-628q0 -40 27.5 -67.5t67.5 -27.5h275l-37 37h-238zM789 623q0 19 -7.5 36.5t-20 30.5
t-30 20.5t-37.5 7.5h-68q-8 0 -13.5 -5.5t-5.5 -13.5q0 -5 2.5 -9.5t7 -7t9.5 -2.5h68q24 0 40.5 -17t16.5 -40v-148l38 -37v185zM602 607h-372q-18 0 -30.5 -12.5t-12.5 -30t12.5 -30t30.5 -12.5h372q12 0 21.5 5.5t15.5 15.5t6 21q0 18 -12.5 30.5t-30.5 12.5zM530 699
q0 19 -9.5 34.5t-25 24.5t-33.5 9h-92q-28 0 -47.5 -20t-19.5 -48v-96h227v96zM416 639q-9 0 -17.5 3.5t-14.5 9.5t-9.5 14.5t-3.5 17.5q0 18 13 31.5t32 13.5q12 0 22.5 -6t16.5 -16.5t6 -22.5t-6 -22.5t-16.5 -16.5t-22.5 -6zM475 83zM625 419q0 -2 -1 -4.5t-3.5 -4.5
t-5.5 -4t-7 -3t-9 -2.5t-10 -2t-11 -0.5h-342q-10 0 -19 2t-15 4.5t-10 6.5t-4 8q0 9 14 15t34 6h342q20 0 33.5 -6t13.5 -15zM625 244q0 -8 -13.5 -14.5t-33.5 -6.5h-342q-13 0 -24 3t-17.5 8t-6.5 10q0 6 6.5 11t17.5 7.5t24 2.5h342q20 0 33.5 -6t13.5 -15zM586 69
q0 -3 2.5 -7.5t3.5 -7t-2 -4.5t-12 -2h-342q-20 0 -34 6.5t-14 14.5q0 9 14 15t34 6h342q15 0 14 -5q0 -1 -2 -5q-4 -7 -4 -11zM829 188l34 10l14 4q7 2 15 4q7 2 13 4t11 4l-10 -37q-1 -3 -1.5 -6t-1.5 -5.5t-1.5 -4.5t-1.5 -4t-1 -3q-8 -19 -17 -35t-18 -28
q-5 -7 -10 -13.5t-10 -12.5l-86 -26l70 -13q-4 -4 -9 -8l-10 -8q-5 -4 -11 -8q-14 -11 -31 -22q-19 -12 -38 -22t-43.5 -10t-46.5 3q-12 2 -24.5 5t-25.5 7q7 11 17 27q8 13 18 30q11 16 23 38q34 57 65 111q32 55 57 99q14 25 28 49.5t27 47.5q-16 -19 -33.5 -40.5
t-35.5 -44.5q-31 -40 -70 -95t-79 -120q-7 -12 -18 -31q-12 -19 -23 -37q-14 -26 -23 -41q-13 -21 -25 -40q-4 -7 -9 -15t-9.5 -15.5t-9.5 -15.5t-9.5 -16t-9.5 -16.5t-10 -16.5q1 14 6 38q0 4 1.5 8t2.5 9t2.5 10t3.5 10.5t4 11.5q5 14 12 31.5t16 37.5q13 27 18 39
q7 17 10 22q3 9 5 11q-3 4 -1 17q1 11 8 33q7 21 23 60t42 84q13 23 28 45t31 45q33 44 71.5 85.5t79 74t80.5 53t78 23.5q1 -25 -4.5 -64.5t-14.5 -86.5q-8 -45 -19 -93q-5 -24 -10 -45.5t-10 -40.5zM829 188z" />
    <glyph glyph-name="uniE606" unicode="&#xe606;" horiz-adv-x="1025" 
d="M1014 -151l-174 187q109 131 109 302q0 48 -9.5 95t-27.5 89t-44 80.5t-58 70.5t-70.5 58t-80.5 44t-89 27.5t-95 9.5q-78 0 -150 -24t-130.5 -68t-102.5 -102t-68 -130.5t-24 -149.5q0 -97 37.5 -184.5t101.5 -151t151.5 -101t184.5 -37.5q103 0 196 42q14 6 19.5 20.5
t-1 28t-20.5 19t-28 -1.5q-20 -9 -40 -15.5t-41 -11t-42.5 -6.5t-42.5 -3q-157 0 -272 106q-112 104 -128 255q-2 21 -2 41q0 156 106 271q103 113 255 128q21 2 41 2q65 0 126.5 -20.5t110.5 -57.5t86.5 -86.5t57.5 -110.5t20 -126q0 -22 -2 -44t-7 -43.5t-12 -42
t-16 -40.5t-20.5 -38.5t-25 -36t-29.5 -33.5q-10 -11 -9.5 -26t10.5 -26q1 0 2.5 -1t2 -1.5t1 -2t1.5 -2.5l189 -201q5 -6 12 -9t14 -3t13.5 2.5t11.5 7.5q11 10 12 25t-10 26z" />
    <glyph glyph-name="uniE607" unicode="&#xe607;" 
d="M220 527q0 -114 79 -196q-125 -48 -198 -151t-73 -247q0 -37 52.5 -67.5t136.5 -47.5t185.5 -25.5t203.5 -2.5t187 21.5t139 47t56 74.5q7 143 -67 246.5t-203 152.5q78 82 78 195q0 77 -38.5 143t-105 104t-144.5 38t-144.5 -38t-105 -104t-38.5 -143zM284 527
q0 60 30 111t81.5 81t112.5 30q93 0 158.5 -65t65.5 -157q0 -66 -35.5 -120t-93.5 -81q143 -33 232 -130t89 -239q0 -36 -61.5 -62t-154 -37t-200.5 -10.5t-200.5 12.5t-154 37.5t-61.5 59.5q0 142 89 239t232 130q-58 27 -93.5 81t-35.5 120z" />
    <glyph glyph-name="uniE608" unicode="&#xe608;" 
d="M901 411h-277v278q0 9 -3 17.5t-8 15t-12 12t-15.5 8t-17.5 2.5h-111q-15 0 -28 -7.5t-20.5 -20t-7.5 -27.5v-278h-278q-15 0 -28 -7.5t-20 -20.5t-7 -28v-111q0 -11 4 -21.5t11.5 -18t18 -12t21.5 -4.5h278v-277q0 -16 7.5 -28.5t20.5 -20t28 -7.5h111q23 0 39.5 16
t16.5 40v277h277q12 0 22 4.5t17.5 12t12 18t4.5 21.5v111q0 23 -16.5 39.5t-39.5 16.5z" />
    <glyph glyph-name="uniE609" unicode="&#xe609;" 
d="M877 630h-572h572zM877 599h-572q-3 0 -6 0.5t-6 2t-5.5 3t-4.5 3.5t-3.5 4.5t-2.5 5.5l-2 6q-1 3 -1 6q0 6 2.5 11.5t6.5 10t10 7t12 2.5h572q8 0 15 -4.5t11.5 -11.5t4.5 -15q0 -6 -2.5 -12t-6.5 -10t-10 -6.5t-12 -2.5zM877 303h-572h572zM877 272h-572q-6 0 -12 2.5
t-10 6.5t-6.5 10t-2.5 12t2.5 11.5t6.5 10t10 7t12 2.5h572q13 0 22 -9t9 -22t-9 -22t-22 -9zM877 -24h-572h572zM877 -55h-572q-13 0 -22 9t-9 22q0 8 4 15t11.5 11t15.5 4h572q13 0 22 -9t9 -21.5t-9 -21.5t-22 -9zM166 -24zM114 -24q0 21 15 36t36.5 15t36.5 -15t15 -36
q0 -14 -7 -26t-18.5 -19t-25.5 -7q-22 0 -37 15.5t-15 36.5zM166 300zM114 300q0 22 15 37t37 15q8 0 16 -2.5t14 -7.5t11 -11.5t7.5 -14t2.5 -16.5q0 -21 -15 -36t-36 -15q-14 0 -26 7t-19 18.5t-7 25.5zM166 630zM114 630q0 14 7 25.5t19 18.5t26 7q21 0 36 -15t15 -36
q0 -14 -7 -26t-18.5 -18.5t-25.5 -6.5q-22 0 -37 15t-15 36z" />
    <glyph glyph-name="uniE60A" unicode="&#xe60a;" 
d="M512 -201q82 0 158.5 25t138 71.5t108 108t71.5 138t25 158.5t-25 158.5t-71.5 138t-108 108t-138 71.5t-158.5 25q-102 0 -195 -39.5t-160 -106.5t-106.5 -160t-39.5 -195t39.5 -195t106.5 -160t160 -106.5t195 -39.5zM512 764q94 0 180.5 -36.5t148.5 -98.5
t98.5 -148.5t36.5 -181t-36.5 -180.5t-98.5 -148t-148.5 -98.5t-180.5 -36.5t-180.5 36.5t-148.5 98.5t-98.5 148t-36.5 180.5t36.5 181t98.5 148.5t148.5 98.5t180.5 36.5zM343 275l260 -259l26 26l-259 259l259 260l-26 26l-260 -259l-26 -27v0z" />
    <glyph glyph-name="uniE60B" unicode="&#xe60b;" 
d="M874.5 172q-8.5 0 -15 -6.5t-6.5 -14.5v-214q0 -4 -1.5 -8t-4.5 -7t-7 -4.5t-8 -1.5h-640q-6 0 -11 3t-7.5 8t-2.5 10v214q0 3 -1 6.5t-3 6t-5 4.5t-6 3t-7 1q-8 0 -14.5 -6.5t-6.5 -14.5v-214q0 -13 5 -24.5t13.5 -20.5t20.5 -14t25 -5h640q9 0 17 2.5t15 6.5t13 10
t10 13t6.5 15.5t2.5 16.5v214q0 8 -6.5 14.5t-15 6.5zM938 494q0 13 -6 25v1l-102 174q-5 11 -10.5 17t-18.5 11t-34 5h-510q-25 0 -40 -9.5t-26 -27.5l-97 -167l-1 -1q-7 -14 -8 -29v0v-150q0 -26 10 -49.5t26.5 -41t39 -27.5t47.5 -10q30 0 57 14.5t44 41.5
q18 -27 44.5 -41.5t57 -14.5t57.5 14.5t44 41.5q17 -27 44 -41.5t57.5 -14.5t57 14.5t44.5 41.5q11 -18 27 -30.5t35 -19t39 -6.5q51 0 87 37.5t36 90.5v150zM230 667q9 15 27 15h510q5 0 7.5 -0.5t5.5 -1t5 -2.5l5 -4q2 -3 4 -7q31 -52 67 -111h-698q49 82 67 111zM896 343
q0 -34 -23.5 -59t-56.5 -25q-16 0 -31 7t-25.5 18t-17 26.5t-6.5 32.5v22q0 3 -1 6.5t-3 6.5t-4.5 5t-6 3t-6.5 1q-9 0 -15.5 -6.5t-6.5 -15.5v-22q0 -34 -23.5 -59t-56.5 -25q-16 0 -31 7t-25.5 18t-17 26.5t-6.5 32.5v22q0 4 -1.5 8.5t-4.5 7t-7 4.5t-8 2q-9 0 -15 -6.5
t-6 -15.5v-22q0 -22 -11 -41.5t-29.5 -31t-39.5 -11.5q-17 0 -31.5 7t-25.5 18t-17 26.5t-6 32.5v22q0 9 -6.5 15.5t-15 6.5t-15 -6.5t-6.5 -15.5v-22q0 -34 -23.5 -59t-56.5 -25q-22 0 -40.5 11.5t-29 31t-10.5 41.5v149q0 8 6 14t14 6h728q8 0 14 -6t6 -14v-149z" />
    <glyph glyph-name="uniE60C" unicode="&#xe60c;" 
d="M511 742l-227 -228h-161q-21 0 -38.5 -10t-27.5 -27.5t-10 -38.5v-303q0 -20 10 -37.5t27.5 -27.5t38.5 -10h161l227 -228q32 0 54 22.5t22 53.5v758q0 31 -22 53.5t-54 22.5zM511 -89l-199 219h-189v303h189l199 219v-741zM960 254q3 0 5.5 2.5t4.5 7t3 10.5t1 13
q0 9 -2 16.5t-5 12t-7 4.5h-94q-4 0 -7 -4.5t-5 -12t-2 -16.5q0 -6 0.5 -11t2 -9t3 -7t3.5 -4.5t5 -1.5h94zM971 683q1 1 2 3t1 4v6q0 4 -1.5 7.5t-3 7.5t-3.5 8q-7 12 -15.5 18.5t-13.5 3.5l-82 -48q-5 -2 -3.5 -12.5t8.5 -22.5t15.5 -18.5t13.5 -3.5zM971 -109
q4 -3 3 -13.5t-8 -22.5t-15.5 -18.5t-13.5 -3.5l-82 47q-5 3 -3.5 13.5t8.5 22.5q4 6 8 10.5t7.5 7.5t7 4t6.5 0zM640 117q-5 13 -2 25t16 17q33 15 51 44.5t22 69.5q5 45 -15 83.5t-57 55.5q-13 8 -16.5 20t3.5 25q8 12 20.5 16t24.5 -4q57 -33 86.5 -86.5t22.5 -116.5
q-3 -26 -12 -51t-23.5 -46t-34.5 -38t-44 -28q-11 -6 -23.5 -2t-18.5 16z" />
    <glyph glyph-name="uniE60D" unicode="&#xe60d;" 
d="M480 348q-8 0 -14.5 -3t-11.5 -8q-3 -4 -5.5 -9t-4 -11t-2.5 -13h77q-1 11 -3.5 19.5t-8.5 13.5q-1 2 -3 3.5t-4 2.5t-4.5 2t-5.5 1l-4 2h-6zM960.5 351q-1.5 15 -14.5 23l-70 43l34 75q6 14 -1 27.5t-22 15.5l-81 13l3 83q0 15 -11 24q-4 3 -8.5 5t-9 2t-9.5 -1l-80 -19
l-29 78q-2 6 -7.5 11t-11.5 7q-15 4 -27 -4l-67 -49l-56 61q-10 11 -25 9.5t-23 -14.5l-44 -70l-75 34q-13 6 -27 -1q-2 -1 -4 -2.5t-3.5 -3t-2.5 -3.5t-2.5 -4t-2 -4t-0.5 -5l-13 -81l-83 3q-15 1 -25 -11q-9 -12 -6 -27l19 -80l-77 -29q-7 -2 -11.5 -7.5t-6.5 -11.5
q-2 -5 -2 -9.5t1.5 -9t4.5 -8.5l48 -67l-60 -56q-11 -10 -10 -25q1 -7 5 -13t10 -10l70 -44l-34 -75q-3 -6 -3 -13t3.5 -13.5t9 -10.5t12.5 -5l82 -13l-3 -83q0 -5 1 -9.5t3.5 -8.5t6.5 -7q12 -9 26 -6l81 20l28 -78q3 -7 8 -11.5t12 -6.5q14 -5 27 4l66 49l57 -61
q3 -3 6.5 -5.5t7.5 -3.5t8 -1h3q15 2 23 15l43 70l75 -34q14 -7 27 0t16 22l13 82l83 -3h1q12 0 21 9t9 21q0 6 -2 11l-18 77l77 28q15 6 19 20t-4 27l-49 67l61 56q11 10 9.5 25zM364 230q0 -13 -6 -19.5t-15.5 -6.5t-15.5 6q-1 2 -2.5 4t-2 4.5t-1 5.5t-0.5 6v71
q0 10 -1.5 18t-4.5 14q-6 11 -23 11q-11 0 -21 -7q-2 -1 -4 -3t-4 -4.5t-3.5 -5t-2.5 -5.5q-3 -10 -3 -36v-53q0 -13 -6 -20q-3 -3 -7 -4.5t-8.5 -1.5t-8.5 1.5t-6.5 5t-4 8t-1.5 11.5v123q0 6 1 10.5t4 7.5q5 6 14 6q6 0 10.5 -2.5t7.5 -8t3 -12.5v-5q11 14 24.5 21t30.5 7
t30 -7t20 -21q4 -8 5 -17q1 -4 1.5 -10t0.5 -13v-79zM448 254q3 -5 6.5 -9.5t8.5 -7t10 -4t11 -1.5q4 0 7.5 0.5t6.5 1.5q6 2 12 5q6 4 11 9q5 4 13 12q3 2 9 2h5q1 0 3 -1t3 -2q4 -4 4 -10v-3l-2 -4q0 -1 -0.5 -3t-2.5 -4q-4 -8 -13 -15t-23 -12q-7 -2 -15 -3t-17 -1
q-41 0 -64 23q-11 12 -17 28t-6 36q0 9 1.5 18t4.5 17q6 16 16.5 27.5t26.5 18t35 6.5q12 0 23 -3t20 -8q18 -11 27 -27q2 -4 3.5 -8.5t2.5 -8.5t2 -8.5t1 -8.5q0 -8 -2.5 -13.5t-7.5 -7.5q-9 -5 -26 -5h-83q0 -5 0.5 -9.5t2 -8.5t3.5 -8zM818 340l-35 -103q-4 -12 -6.5 -18
t-8 -10.5t-14.5 -4.5q-10 0 -15.5 4.5t-8.5 11.5q-1 4 -2.5 8.5t-2.5 10.5l-25 83l-23 -83q-5 -18 -11 -26q-1 -3 -4 -5t-6.5 -3t-8.5 -1q-7 0 -12 2.5t-8 7.5t-6 12l-2 6q-1 3 -2 5l-34 103q-5 14 -5 19q0 4 1 7t4 6q6 5 13 5q3 0 5.5 -0.5t4 -1t3 -1.5t2.5 -3q4 -6 8 -20
l28 -96l25 89q4 14 6 19t7 10q3 2 6.5 3t8.5 1q10 0 15 -4.5t7.5 -10t6.5 -18.5l25 -89l28 96q2 5 3 8.5t2 6.5q2 4 6 8q1 1 2.5 1.5t4 1t4.5 0.5q8 0 13.5 -5t5.5 -13q0 -6 -5 -19z" />
    <glyph glyph-name="uniE60E" unicode="&#xe60e;" 
d="M867 475q0 2 0.5 3.5t0.5 3.5t0.5 4t0.5 4v137q0 33 -29.5 62.5t-63.5 29.5h-138q-53 0 -91 -28q-8 -4 -14 -8.5t-11 -9.5l-344 -339q-23 -23 -23 -56t23 -56l182 -167q24 -24 69.5 -24t69.5 24l347 343q32 32 21 77zM548 345l53 -54l-27 -28l-54 54l-40 -40l54 -54
l-27 -27l-54 54l-54 -54l-54 54l54 54l-55 55l27 27l55 -55l40 40l-55 55l27 28l55 -55l45 176l35 -35l-37 -154l153 38l34 -34zM799 559q-10 -10 -28 -14t-36 0t-28 14t-14 28t0 35.5t14 27.5t28 14t36 0t28 -14q4 -3 7 -8.5t5 -11.5t3 -12.5t1 -13t-1 -13t-3 -12.5t-5 -11
t-7 -9zM362 -18q29 -31 65 -32.5t75 33.5l281 279l-175 -331q-5 -11 -14.5 -20.5t-21.5 -16.5t-24.5 -10.5t-25.5 -2.5t-24 6l-220 110q-19 9 -28 18.5t-12 28t9 43.5z" />
    <glyph glyph-name="uniE60F" unicode="&#xe60f;" 
d="M825 172q108 110 108 256q0 104 -56.5 192.5t-153.5 140t-211 51.5t-211 -51.5t-153.5 -140t-56.5 -192.5q0 -146 108 -256q-67 -105 -142 -225l184 -25l115 -134q87 137 156 248l156 -248l115 134l184 25q-1 1 -142 225zM339 -116l-55 108l-126 -8q43 71 89 146
q84 -63 193 -80q-50 -81 -101 -166zM162 428q0 87 46.5 160.5t127.5 116.5t176 43t176 -43t127.5 -116.5t46.5 -160.5t-46.5 -160.5t-127.5 -116.5t-176 -43t-176 43t-127.5 116.5t-46.5 160.5zM740 -8l-55 -108q-51 85 -101 166q109 17 193 80l89 -146zM512 652
q-102 0 -173.5 -65.5t-71.5 -158.5t71.5 -158.5t173.5 -65.5t173.5 65.5t71.5 158.5t-71.5 158.5t-173.5 65.5zM512 268q-36 0 -68.5 12.5t-55.5 34t-37 51t-14 62.5q0 66 51 113t124 47t124 -47t51 -113t-51 -113t-124 -47z" />
    <glyph glyph-name="uniE610" unicode="&#xe610;" 
d="M511 618q-65 0 -120 -31.5t-87 -85.5t-32 -117q0 -36 22.5 -90t59.5 -113t66.5 -101.5t61.5 -83.5q11 -15 29 -15t29 15q19 25 38 51t44.5 63.5t46.5 73.5t40 72.5t30 69.5t11 58q0 63 -32 117t-87 85.5t-120 31.5zM527 51q-6 -8 -16.5 -8t-16.5 8q-83 113 -130.5 201.5
t-47.5 131.5q0 79 57 135t138 56q39 0 75.5 -15t62.5 -40.5t41.5 -61t15.5 -74.5q0 -43 -47.5 -131.5t-131.5 -201.5zM511 498q-42 0 -72 -29t-30 -70.5t30 -70.5t72 -29q27 0 50.5 13t37 36t13.5 50q0 21 -8 39.5t-21.5 31.5t-32.5 21t-39 8zM511 341q-24 0 -41 17t-17 40
q0 12 4.5 22.5t12.5 18t18.5 12.5t22.5 5q24 0 41 -17t17 -41q0 -11 -4.5 -21.5t-12.5 -18.5t-18.5 -12.5t-22.5 -4.5zM511 341z" />
    <glyph glyph-name="uniE611" unicode="&#xe611;" horiz-adv-x="1025" 
d="M512 554l245 -286h-21q-26 0 -48 -13t-35 -35t-13 -48v-288h-256v288q0 40 -28 68t-68 28h-21zM512 638q-6 0 -11.5 -2.5t-9.5 -7.5l-342 -400q-9 -10 -5.5 -17t16.5 -7h128q13 0 22.5 -9.5t9.5 -22.5v-320q0 -13 9.5 -22.5t22.5 -9.5h320q13 0 22.5 9.5t9.5 22.5v320
q0 13 9.5 22.5t22.5 9.5h128q13 0 16.5 7t-5.5 17l-342 400q-2 2 -4 3.5t-4 2.5l-4 2q-2 1 -4.5 1.5t-4.5 0.5zM192 748q0 -13 -9.5 -22.5t-22.5 -9.5t-22.5 9.5t-9.5 22.5t9.5 22.5t22.5 9.5q9 0 16 -4.5t11.5 -11.5t4.5 -16zM896 748q0 -13 -9.5 -22.5t-22.5 -9.5
t-22.5 9.5t-9.5 22.5q0 9 4 16t11.5 11.5t16.5 4.5q13 0 22.5 -9.5t9.5 -22.5zM160 780h704v-64h-704v64z" />
    <glyph glyph-name="uniE612" unicode="&#xe612;" 
d="M306 748q12 -1 24 -7.5t18 -11.5t18 -18q40 -39 112.5 -112t132 -132.5t112.5 -111.5q23 -22 29.5 -41.5t-1 -38.5t-29.5 -41q-63 -61 -179 -177l-166 -166q-1 -1 -3 -4q-12 -11 -18.5 -16.5t-18 -12t-22.5 -4t-22 13.5t-13.5 22.5t4.5 24t13 19.5l18 19q207 210 286 286
q32 31 31.5 55.5t-31.5 54.5q-81 78 -306 306q-7 7 -11.5 12t-9.5 12.5t-6.5 14t-1.5 15t4 17.5q9 21 36 22z" />
    <glyph glyph-name="uniE613" unicode="&#xe613;" 
d="M276 303l421 384q10 11 10 25.5t-10 24.5q-7 7 -16 9.5t-18.5 0t-15.5 -9.5l-439 -399q-6 -3 -11 -8q-12 -11 -11 -27q0 -7 2.5 -14t8.5 -12q5 -5 11 -8l439 -400q6 -6 15.5 -8.5t18.5 0t16 8.5q10 11 10 25.5t-10 24.5zM276 303z" />
    <glyph glyph-name="uniE614" unicode="&#xe614;" 
d="M813 87q-4 2 -51.5 26.5t-87.5 38t-91 19.5q10 8 18 18t16.5 28t13 28.5t16 40t15.5 40.5v2l1 1q12 -2 18 2q10 6 16 32t6 46q0 15 -4 22.5t-8 7.5l-4 1h-1v2v6q0 8 1 25.5t1.5 31t-0.5 29t-4 25.5q-3 12 -6.5 28t-5.5 22.5t-7 15.5t-13 18q-29 31 -88 51t-121 7
q-18 -4 -27 -13t-9.5 -17t-2.5 -14.5t-7 -6.5q-10 1 -18 -5t-13.5 -13.5t-11.5 -21.5t-9 -24.5t-8 -26.5q-3 -13 -3.5 -32t0.5 -45t1 -34q0 -2 1 -5v-3h-2h-2q-1 0 -2 -0.5t-2.5 -1.5t-3 -2.5t-3 -3.5t-2 -5.5t-1 -8t-0.5 -9.5q0 -20 6 -46t16 -32q6 -4 18 -2q1 0 2 -1v-2
q5 -13 15.5 -41.5t15.5 -39.5t13.5 -28.5t16.5 -28t18 -17.5q-40 -5 -79 -17.5t-59 -21.5t-52 -26q-9 -4 -13.5 -6.5t-11.5 -5.5l-13 -7q-91 -41 -107 -92q-1 -5 -1 -9v-89h819v89q0 24 -34 54q-29 27 -75 47z" />
    <glyph glyph-name="uniE615" unicode="&#xe615;" 
d="M887 -157h-300v327h-164v-327h-300v396h-123l505 518l519 -518h-137v-396zM633 -112h209v396h72l-408 408l-398 -408h61v-396h209v328h255v-328z" />
    <glyph glyph-name="uniE616" unicode="&#xe616;" 
d="M799 -88h-639q-26 0 -48 12.5t-35 35t-13 48.5v578q0 40 28 68t68 28h642q40 0 68 -28t28 -68v-94q0 -13 -9 -22.5t-23 -9.5q-8 0 -15.5 4.5t-12 11.5t-4.5 16v94q0 5 -1.5 10t-4.5 9t-7 7t-8.5 4.5t-10.5 1.5h-642q-4 0 -8.5 -1t-8 -3t-6.5 -5t-5 -6.5t-3 -8t-1 -8.5
v-578q0 -9 4.5 -16.5t11.5 -11.5t16 -4h639q14 0 23 9t9 23v98q0 14 9.5 23t23 9t22.5 -9t9 -23v-98q0 -40 -28 -68t-68 -28zM661 298zM630 298q0 8 4.5 15.5t11.5 11.5t15 4q13 0 22.5 -9t9.5 -22q0 -9 -4.5 -16t-11.5 -11t-16 -4q-12 0 -21.5 9t-9.5 22zM896 172h-320
q-26 0 -45 19t-19 45v128q0 26 19 45t45 19h320q26 0 45 -19t19 -45v-128q0 -26 -19 -45t-45 -19zM576 364v-128h320v128h-320z" />
    <glyph glyph-name="uniE617" unicode="&#xe617;" 
d="M287 300h-62q-13 0 -22.5 9.5t-9.5 22.5q0 9 4.5 16t11.5 11.5t16 4.5h62q13 0 22.5 -9.5t9.5 -22.5t-9.5 -22.5t-22.5 -9.5zM883 684h-742q-32 0 -54.5 -22.5t-22.5 -54.5v-155v-8v-458q0 -10 2.5 -19t7 -16.5t11 -14t14.5 -11t17.5 -7t18.5 -2.5h754q29 0 50 20.5
t21 49.5v458v163q0 32 -22.5 54.5t-54.5 22.5zM896 607v-131h-223v144h210q3 0 6 -2t5 -5t2 -6zM447 620h162v-360l-71 28q-2 1 -4 1.5t-4 0.5h-4h-4q-2 0 -4 -1t-4 -1l-67 -28v360zM128 607q0 5 4 9t9 4h242v-144h-255v131zM889 -20h-754q-7 0 -7 6v426h255v-200
q0 -17 14 -26q3 -2 5.5 -3t6 -2t6.5 -1h4l4 2q2 0 4 1l99 40l103 -40q3 -2 6 -2.5t6 -0.5t6 1l6 2q3 1 5 3q15 9 15 26v200h223v-426q0 -2 -1 -3t-2.5 -2t-3.5 -1z" />
    <glyph glyph-name="uniE618" unicode="&#xe618;" 
d="M600 289h8v1q17 6 17 24q0 11 -7 18.5t-18 7.5h-98v21l103 101l4 5q3 6 4 12q0 3 -0.5 6.5t-2 6.5t-4.5 5q-6 8 -17 8.5t-19 -6.5l-93 -92l-99 97q-5 5 -11.5 6t-13 -1t-10.5 -7q-13 -14 -3 -30v-1l111 -109v-22h-98h-8v-2q-17 -5 -17 -24q0 -5 2 -10t6 -8.5t9 -5.5v-1
h106v-39h-106v-1q-7 -3 -12 -9.5t-5 -14.5q0 -19 17 -25v-1h106v-97v-7h2q2 -8 8.5 -13t15.5 -5q18 0 24 18h1v104h98h8v2q8 2 12.5 8.5t4.5 15.5q0 10 -7 17.5t-18 7.5h-98v39h98zM955 337q-5 5 -12 7t-14 0.5t-12 -7.5l-25 -24q-3 110 -59.5 202.5t-151 146.5t-204.5 54
q-113 0 -209 -55.5t-151.5 -151.5t-55.5 -209q0 -85 33 -162t88.5 -132.5t132.5 -88.5t162 -33q93 0 175.5 39.5t141.5 109.5q2 1 4 3.5t4 4.5v1q1 0 1 1q3 6 3 12q0 8 -4 14.5t-10.5 10t-14.5 3.5q-7 0 -13 -3.5t-10 -9.5q-51 -61 -123 -95.5t-154 -34.5q-98 0 -181 48
t-131.5 131t-48.5 181t48.5 181t131.5 131t180.5 48t180.5 -48t131.5 -131t48.5 -181v-2v-2l-41 41q-4 4 -9 6t-10 2t-10.5 -2t-9.5 -6q-5 -5 -7 -12t0 -14t7 -12l75 -75q8 -8 20 -8q5 -1 6 -1q12 0 19 7l78 77q8 8 8 19t-8 19z" />
    <glyph glyph-name="uniE619" unicode="&#xe619;" 
d="M717 718q-29 0 -57.5 -10t-49.5 -25t-41.5 -35t-33 -36.5t-23.5 -33.5q-14 23 -31.5 43.5t-43.5 44t-60 38t-70 14.5q-71 0 -131.5 -39t-96 -106.5t-35.5 -146.5q0 -57 33.5 -127.5t79.5 -113.5q61 -78 196.5 -193.5t159.5 -115.5t157.5 114t195.5 194q47 43 80.5 114
t33.5 128q0 121 -77.5 206.5t-185.5 85.5zM918 426q0 -30 -13 -67.5t-35 -72t-47 -57.5l-4 -4q-52 -67 -141.5 -146t-164.5 -133q-42 31 -87 66.5t-113.5 98.5t-107.5 114l-4 4q-39 35 -67 93t-28 104q0 62 27 115t73.5 84t100.5 31q51 0 99 -45.5t78 -109.5q8 -16 28 -16
t28 16q30 64 78 109.5t99 45.5q18 0 36 -4t34 -11t31 -17t28 -22.5t24.5 -27.5t20 -32.5t14.5 -36t9.5 -39t3.5 -40.5z" />
    <glyph glyph-name="uniE61A" unicode="&#xe61a;" 
d="M901 520q11 0 21.5 -2.5t18 -6t11.5 -9t4 -11t-4 -10.5t-11.5 -9t-18 -6t-21.5 -2h-139h-502h-139q-23 0 -39 8t-16 19.5t16 20t39 8.5h780zM762 409l55 -1q-7 -378 -20 -442q-4 -18 -10 -33.5t-13 -26.5t-15 -20t-15.5 -14.5t-15.5 -9.5t-14 -6t-12 -3t-8 -1.5t-4 -0.5
h-338q-29 0 -52.5 12t-38.5 31t-23.5 37t-12.5 35l-1 5l-19 436l55 3l20 -434l4 -12q2 -6 8 -17t13.5 -19t19.5 -14.5t27 -6.5h338q1 0 4.5 0.5t10.5 5t13 11t13 21t11 33.5q14 63 20 431zM762 575h-56q0 4 -0.5 12.5t-4.5 27t-10 33.5t-20 27t-33 12h-254q-19 0 -33 -12
t-20 -27t-10 -33.5t-4.5 -27t-0.5 -12.5h-56q0 25 6 51.5t19 53.5t38.5 44.5t60.5 17.5h254q35 0 60.5 -17.5t38.5 -44.5t19 -53.5t6 -51.5zM622 408h56v-445h-56v445zM483 408h56v-445h-56v445zM344 408h56v-445h-56v445z" />
    <glyph glyph-name="uniE61B" unicode="&#xe61b;" 
d="M509 718q-112 0 -207 -55.5t-150.5 -151t-55.5 -207.5q0 -84 32.5 -160.5t88 -132t132 -88t160.5 -32.5q112 0 207.5 55.5t151 150.5t55.5 207t-55.5 207.5t-151 151t-207.5 55.5zM742 421l-279 -282v-1q-2 -1 -7 -4l-1 -1l-1 -1q-2 -1 -3 -1q-6 -2 -12.5 -2t-13.5 2
q-1 1 -2 1.5t-2 1.5q-5 3 -7 5h-1l-137 141q-6 7 -8.5 16t0 18t9.5 15q10 10 24.5 10t24.5 -10l113 -116l253 257q11 10 25 10t25 -10q6 -7 8.5 -16t0 -18t-8.5 -15zM709 373z" />
    <glyph glyph-name="uniE61C" unicode="&#xe61c;" 
d="M522 410q-48 0 -89 -24t-65 -65t-24 -89q0 -74 52.5 -126.5t125.5 -52.5q49 0 90 24t65 65t24 90q0 36 -14 69t-38 57t-57 38t-70 14zM902 564h-167l-66 85q-3 3 -7 5t-8 2h-273q-4 0 -8 -2t-7 -6l-62 -84h-180q-19 0 -35.5 -9.5t-26 -25.5t-9.5 -35v-518q0 -29 21 -49.5
t50 -20.5h778q29 0 49.5 20.5t20.5 49.5v518q0 29 -20.5 49.5t-49.5 20.5zM522.5 15q-89.5 0 -153.5 63.5t-64 153t64 153.5t153.5 64t153 -64t63.5 -153.5t-63.5 -153t-153 -63.5zM819.5 401q-7.5 0 -14 4t-10 10t-3.5 14t3.5 14.5t10 10t14.5 3.5q11 0 19.5 -8t8.5 -20
q0 -8 -4 -14t-10.5 -10t-14 -4z" />
    <glyph glyph-name="uniE61D" unicode="&#xe61d;" 
d="M512 812q-139 0 -257 -68.5t-186.5 -186.5t-68.5 -257t68.5 -257t186.5 -186.5t257 -68.5t257 68.5t186.5 186.5t68.5 257t-68.5 257t-186.5 186.5t-257 68.5zM800 255h-576v96h576v-96z" />
    <glyph glyph-name="uniE61E" unicode="&#xe61e;" 
d="M671 -150h-20q-27 2 -52.5 6.5t-45.5 12t-33 16.5l-1 1q-1 1 -2.5 1.5t-2.5 1t-2 0.5q-4 -1 -8 -3v-1q-42 -30 -132 -35h-19q-57 0 -94 15q-47 20 -49 57q-2 41 51 69q-28 33 -45 72q-7 -10 -14 -19q-12 -14 -22.5 -20.5t-20.5 -6.5q-17 0 -25 16v1q-35 72 -10 162
q17 60 57 116q0 2 1 5q0 12 3 25q1 10 3.5 19.5t7.5 22t11 22.5v6v5v6q0 8 -1 13q-1 60 22 118t68 104q14 15 29.5 27.5t32.5 23t35 18.5q57 26 119 27v0q61 -1 117 -26q54 -25 96 -68q45 -46 68 -104.5t22 -119.5q-1 -5 -1 -13v-16q5 -9 9 -17.5t6.5 -17t4.5 -15.5l4 -14
q2 -13 4 -25v-5q38 -54 55 -118q11 -43 9.5 -84t-15.5 -76l-1 -1q-7 -17 -25 -17q-26 0 -57 47q-17 -40 -45 -73q52 -28 50 -69q-2 -37 -48 -57q-38 -15 -94 -15zM542 -85q15 -11 45.5 -18.5t65.5 -9.5h9h9q48 0 76.5 11t28.5 26q1 11 -13 23t-37 20l-28 10l21 20
q49 49 67 116l13 48l22 -45q19 -40 39 -58q20 61 1 126.5t-52 110.5l-7 11l3 5q-4 47 -25 81l-3 6v6q1 5 1 19v14q1 53 -19.5 104.5t-59.5 92.5q-79 82 -187 83q-52 -1 -101.5 -23t-88.5 -61q-26 -27 -44 -59t-27 -67t-8 -70v-14q0 -14 1 -19v-6l-3 -6q-20 -33 -23 -80l4 -6
l-8 -11q-7 -10 -14.5 -21.5t-17.5 -31t-17 -41t-11.5 -45t-2 -49.5t11.5 -50q20 17 40 59l21 45l13 -48q19 -67 68 -116l20 -20l-27 -10q-23 -8 -37 -20t-14 -23q1 -15 29.5 -26t76.5 -11h18q77 4 111 28q13 10 28 11h2h1q8 0 15.5 -3t13.5 -8z" />
    <glyph glyph-name="uniE61F" unicode="&#xe61f;" 
d="M499 467q20 0 32 12t12 32q0 10 -3.5 18t-9 13.5t-13.5 9t-18 3.5q-21 0 -37 -12.5t-16 -31.5q0 -4 1 -7l2 -8q1 -3 3 -6t5 -6t6 -5l6 -4q3 -2 6.5 -3.5t7.5 -2.5t8 -1.5t8 -0.5zM253 555q-21 0 -37 -12.5t-16 -31.5t16 -31.5t37 -12.5q20 0 32 12t12 32q0 13 -5.5 23
t-15.5 15.5t-23 5.5zM1024 186q0 104 -84 182t-203 87v3v3q-24 111 -130 185t-240 74q-151 0 -259 -92q-103 -88 -108 -212v-11q0 -142 138 -243l-32 -94q-1 -3 -0.5 -6t1.5 -6t4 -5q2 -2 5 -3t5 -1q4 0 8 2l117 59l15 -3q18 -4 27.5 -6t24 -4t27.5 -3t27 -1h11q6 0 12 0.5
t11 0.5q3 0 5 1t3.5 2t2.5 3q33 -81 114.5 -132t183.5 -51q37 0 103 17l91 -50q2 -1 3.5 -1.5t3.5 -0.5l11 3q8 7 5 18l-23 77q120 95 120 208zM399 124q-16 -1 -32 -1q-13 0 -25 1t-25.5 3t-23 3.5t-26.5 5.5l-20 4q-5 1 -10 -1l-88 -45l23 69q0 2 0.5 4.5t0 4t-1.5 3.5
t-2.5 3.5t-2.5 3.5q-134 93 -134 223q0 77 45 142t122 103t168 38q60 0 117.5 -17.5t102 -48.5t76 -74t42.5 -92q-63 0 -120.5 -22t-99 -58t-66 -86t-24.5 -104q0 -11 1 -21.5t3 -20.5t5 -21q-4 1 -5 1zM875 -4q-8 -6 -5 -17l15 -50l-62 34q-2 1 -4 1.5t-4 0.5t-4 -1
q-67 -17 -101 -17q-117 0 -200 70t-83 169q0 39 14.5 75.5t40.5 65.5t61 51.5t78 34.5t89 12q56 0 108 -19.5t90 -51.5t61 -76t23 -92q0 -49 -30 -98t-87 -92zM613 300q-13 0 -24 -11t-11 -24t11 -24t24 -11q19 0 31.5 10.5t12.5 24.5t-12.5 24.5t-31.5 10.5zM806 300
q-13 0 -24 -11t-11 -24t11 -24t24 -11q19 0 31.5 10.5t12.5 24.5q0 23 -26 32q-9 3 -18 3z" />
    <glyph glyph-name="uniE620" unicode="&#xe620;" 
d="M512 736q-185 0 -316.5 -131.5t-131.5 -316.5t131.5 -316.5t316.5 -131.5t316.5 131.5t131.5 316.5t-131.5 316.5t-316.5 131.5zM695 150q9 -9 9 -22.5t-9.5 -23t-22.5 -9.5t-23 10l-137 138l-138 -137q-10 -9 -23 -9q-3 0 -6 0.5t-6 2t-5.5 3t-4.5 4.5q-7 6 -9 14
t0.5 16.5t8.5 14.5l138 136l-138 138q-9 9 -9 22.5t9.5 23t22.5 9.5t23 -10l137 -138l138 137q10 9 23 9t22.5 -9.5t9.5 -22.5t-10 -23l-138 -136z" />
    <glyph glyph-name="uniE621" unicode="&#xe621;" 
d="M668 584h7q27 0 47.5 -1t59.5 -11t62 -28t37 -57.5t4 -94.5q-14 -56 17 -64q29 -8 45 38q0 1 3 14t6 27t4.5 36t0 42t-8.5 43.5t-19.5 43t-35 37t-52.5 29t-74.5 17t-99.5 1.5q-13 -2 -26 -11t-13 -23q0 -4 1 -8t3 -7.5t4.5 -6.5t5 -5t5.5 -4t6 -3.5t5.5 -2.5t5.5 -1z
M680 495q0 1 1 1q9 1 17.5 1.5t27.5 -3t32 -12t22.5 -30t7.5 -52.5q0 -4 -0.5 -9t-0.5 -10t2 -8.5t8 -5.5q6 -1 11 1.5t7.5 7.5t3.5 11t1 9t0.5 15.5t-0.5 22t-4 24t-9 25t-16.5 21.5t-25 17.5t-36 9.5t-48.5 0q-9 -1 -14.5 -6t-4.5 -13q0 -3 1 -5.5t3 -4.5l2 -2q2 -2 4 -3
t4 -1.5t4 -0.5zM726 315q-2 0 -4.5 -0.5t-9.5 -0.5t-10 2t-5 7t6 15q17 34 4 70.5t-53 49.5t-111 -20q-17 -9 -27 -11t-14 2t-5 13t0 21q2 73 -67 81q-74 8 -174 -58q-116 -77 -165 -192l-4 -8q-37 -99 10.5 -183t148.5 -124q118 -39 216.5 -34t174.5 43t123.5 86.5
t62.5 95.5q11 37 11.5 64.5t-7.5 43t-20 25t-26 12t-26.5 3t-20.5 -1.5zM427.5 20q-72.5 -10 -137.5 5.5t-106.5 52.5t-48.5 87q-10 75 61 139t181.5 79t196 -27.5t95.5 -117.5q7 -49 -23 -96t-88 -79.5t-130.5 -42.5zM540 228.5q-9 45.5 -56 70.5t-105 14q-38 -8 -67 -29
t-43 -50t-8 -59q9 -46 56 -70.5t104.5 -13.5t92.5 51.5t26 86zM370 148q-20 0 -34 12t-14 29q0 8 4 15.5t10.5 13t15 9t18.5 3.5q20 0 34 -12t14 -29q0 -11 -6.5 -20.5t-17.5 -15t-24 -5.5zM449 203q-8 0 -14 8t-6 18.5t6 18.5t14 8t14 -8t6 -18q0 -6 -2 -11t-4.5 -8.5
t-6 -5.5t-7.5 -2z" />
    <glyph glyph-name="uniE622" unicode="&#xe622;" 
d="M345 570q5 -3 9.5 -7t9.5 -9q9 -8 16 -18q1 -2 3 -5t3.5 -5.5t3.5 -5.5q6 -8 11 -16q3 -4 5.5 -9t5.5 -9l5 -9h190l5 8q1 1 2 3l2 2l2 4q1 1 2 3t2 3.5t1 2.5q1 2 2 3.5t1.5 2.5l1.5 3l2 2q1 2 2 3q2 4 4.5 7t4.5 6q8 11 16 21q6 8 19 17q10 6 16 15q7 10 9 20
q1 6 0.5 12t-3.5 11q-6 12 -21 19q-12 3 -21 2q-7 -1 -14 -4q-6 -2 -12 -5q-3 -1 -7 -1t-6 1q-4 2 -7 5l-9 8q-3 3 -6 5t-6 3.5t-6 2.5q-12 4 -22 4.5t-18 -2.5q-12 -5 -25 -17l-5 -5h-1l-6 4l-4 4l-1 2q-6 5 -13 8.5t-17 4.5q-9 2 -18 0.5t-18 -7.5q-4 -2 -7 -4.5t-6 -4.5
t-6 -5l-4 -4q-2 -2 -8 -3h-2h-4q-10 3 -16 5q-5 2 -9.5 3t-9.5 1q-7 1 -13.5 -0.5t-12.5 -6.5q-21 -16 -13 -40q3 -9 8.5 -16.5t12.5 -12.5zM359 612q6 0 13 -2l6 -2l4 -2q2 0 6 -1q12 -4 23 -2q17 4 26 14q5 5 17 13q5 3 12 2t10 -4q4 -5 9 -9q2 -1 4 -2.5t5 -2.5
q5 -4 11 -7l3 -2h5q6 0 13 4q2 1 3.5 2.5t3.5 3t4 3.5l4 4q4 4 8 6.5t7 3.5q3 2 13 -2q1 0 2 -1q5 -1 7 -3l10 -9q3 -2 6 -4.5t7 -4.5q9 -5 21 -5t21 4q3 1 5.5 2t5.5 2q4 2 7 2h4l2 -1q1 -2 0 -3q0 -1 -0.5 -3t-2.5 -4q-2 -3 -6 -5q-9 -6 -16 -12t-12 -13q-2 -2 -3.5 -4
t-3.5 -4.5t-3.5 -4.5t-3 -4.5t-3.5 -4.5q-4 -6 -9.5 -14t-9.5 -16q-3 -4 -5 -9h-153q-3 6 -6 11q-5 9 -12 18q-6 8 -9 14q-10 14 -22 25q-5 5 -10.5 10t-11.5 9t-8 12q0 1 2 2zM817 192q-7 44 -24 78q-16 33 -39 58q-22 25 -43 43q-23 19 -41 37q-17 17 -30 31
q-7 8 -13 14.5t-11 13.5l-5 6h-203l-5 -6q-5 -7 -11 -14t-13 -16l-9 -9l-8 -10q-5 -5 -11 -10q-9 -9 -18.5 -17.5t-19.5 -17.5q-13 -12 -25 -25t-23 -27q-6 -7 -11 -14.5t-10 -15.5t-9 -16.5t-8 -16.5q-15 -35 -20 -75q-3 -20 -2.5 -40.5t4.5 -42.5q7 -39 29 -78.5t60 -71.5
q18 -15 41 -28t49 -23q54 -20 122 -20q66 0 119 17t91 46q40 30 63 69q12 20 20 41t12 44q9 52 2 96zM781 101q-7 -38 -27 -72t-54 -59q-34 -26 -81 -41q-24 -8 -51.5 -11.5t-57.5 -3.5q-31 0 -58.5 4t-51.5 13q-47 18 -80 45.5t-52 61.5q-19 35 -26 68q-6 38 -2 73
q5 34 18.5 65t33.5 56q6 9 13 17t14.5 15.5t15.5 14.5q11 9 21 18.5t19 18t16.5 16.5t13.5 15q3 5 7 9l6 8l7 7h169q9 -11 21 -23q4 -5 9 -10t10.5 -11t11.5 -12q5 -4 10 -9t10.5 -9.5t11 -9.5t11.5 -10q19 -17 40 -39q4 -6 9 -12t9 -12t8 -13t8 -15q5 -9 8.5 -20t6.5 -22.5
t5 -24.5q3 -19 2.5 -40.5t-4.5 -45.5zM589 116q4 -1 7 -0.5t5.5 1.5t3.5 3q5 5 5 13q0 7 -5 12q-1 1 -3 2l-4 2q-2 1 -4 1h-6h-54v16q7 7 13.5 13t12.5 13l20 20q10 10 15 14q19 17 8 29q-6 8 -15 8q-4 0 -8.5 -1.5t-7.5 -5.5q-1 -1 -2.5 -2t-3.5 -2.5t-4 -3.5l-4 -4
q-11 -9 -20 -18q-4 -3 -8 -7t-8.5 -8t-9.5 -9l-40 40q-2 2 -3.5 4t-3 3.5t-2.5 3t-2 2.5q-7 5 -18 9q-11 3 -18 -4q-6 -10 -3 -18.5t7 -13.5l13 -11q2 -3 5 -6.5t8 -9t7 -6.5q6 -7 13 -14l14 -14l-1 -17h-56q-8 0 -13 -6q-3 -3 -4 -6t-1 -7q0 -6 5 -11t13 -5h56v-29h-56
q-4 0 -7 -1t-6 -4q-5 -4 -5 -12q-1 -6 4 -11q3 -2 6.5 -3t7.5 -1h56v-17q1 -11 7.5 -16t16.5 -5q5 0 9 1.5t7 5.5q6 7 6 14v17h58q9 0 14 3.5t4 11.5q0 9 -5.5 13.5t-17.5 4.5h-53l1 28z" />
    <glyph glyph-name="uniE623" unicode="&#xe623;" 
d="M188 739q-10 10 -24.5 10t-24.5 -10t-10 -24t10 -24l49 -48q3 -3 6 -5t6.5 -3t7.5 -1.5t7.5 0t7 1.5t7 3t6.5 5q7 6 9 15t0 18t-9 15l-48 48v0zM836 739l-48 -48q-10 -10 -10 -24t10 -24q2 -3 5 -5l6 -2q3 -2 6.5 -2.5t6.5 -0.5t6.5 0.5t6.5 2.5l6 2q3 2 5 5l49 48
q10 10 10 24t-10 24t-24.5 10t-24.5 -10v0zM102 469h-68q-24 0 -32 -23q-2 -6 -2 -11q0 -7 2.5 -13t7.5 -11t11 -7.5t13 -2.5h68q10 0 17.5 4.5t12.5 12.5t5 17q0 6 -2 11t-5 9.5t-7.5 7.5t-9.5 4.5t-11 1.5v0zM990 469h-68q-7 0 -13.5 -2.5t-11 -7t-7.5 -11t-3 -13.5
q0 -5 2 -10.5t5 -9.5t7.5 -7t9.5 -5t11 -2h68q14 0 24 10t10 24q0 7 -2.5 13.5t-7.5 11t-11 7t-13 2.5v0zM478 862v-68q0 -15 10 -25t24 -10t24 10t10 25v68q0 14 -10 24t-24 10t-24 -10t-10 -24v0zM273 384q0 99 70 169t169 70t169 -70t70 -169q0 -49 -19 -93t-51 -76
t-76 -51t-93 -19q-106 0 -177 78q-61 69 -62 161v0zM205 384q0 -127 90 -217t217 -90t217 90t90 217t-90 217t-217 90q-128 0 -218 -90q-89 -91 -89 -217v0zM444 -94q0 -5 1 -9t3.5 -8t5.5 -7t6.5 -5.5t8 -3.5t9.5 -1h68q14 0 24 10t10 24t-10 24t-24 10h-68q-9 0 -17 -4.5
t-12.5 -12.5t-4.5 -17v0zM375 9q0 -10 5 -17.5t12.5 -12.5t17.5 -5h204q15 0 25 10t10 25q0 6 -3 12.5t-7.5 11t-11 7.5t-13.5 3h-204q-15 0 -25 -10t-10 -24v0zM375 9z" />
    <glyph glyph-name="uniE624" unicode="&#xe624;" 
d="M421 23q-11 0 -18 8l-332 331q-5 5 -7 12t0 13.5t7 11.5t12 7t13.5 0t11.5 -7l332 -331q8 -8 8 -19t-8 -18q-3 -3 -6 -4.5t-6 -2.5t-7 -1zM421 23q-11 0 -18.5 7.5t-7.5 18.5t8 19l508 509q8 7 19 7t19 -7q5 -5 6.5 -12t0 -14t-6.5 -12l-509 -508q-8 -8 -19 -8z" />
    <glyph glyph-name="uniE625" unicode="&#xe625;" 
d="M512 620q59 0 123 -27t116 -66.5t97.5 -85t73.5 -83t36 -58.5q-8 -21 -36 -58.5t-73.5 -83t-97.5 -85t-116 -66.5t-123 -27t-123.5 27t-116.5 67t-97.5 85t-73 82.5t-35.5 58.5q6 17 27.5 46.5t53 65.5t74.5 72.5t88.5 67t99.5 49.5t103 19zM512 684q-72 0 -150.5 -33.5
t-141 -83.5t-113.5 -104t-79 -98.5t-28 -64.5t28 -64.5t79 -98.5t113 -104t140.5 -83.5t151.5 -33.5t151 33.5t140.5 83.5t113.5 104t79 98.5t28 64.5t-28 64.5t-79.5 98.5t-113.5 104t-140.5 83.5t-150.5 33.5zM512 460q-66 0 -113 -47t-47 -113t47 -113t113 -47t113 47
t47 113t-47 113t-113 47zM512 204q-40 0 -68 28t-28 68t28 68t68 28t68 -28t28 -68t-28 -68t-68 -28z" />
    <glyph glyph-name="uniE626" unicode="&#xe626;" 
d="M536 -60h-24h-18h-6q-17 0 -23 -6q-36 -36 -118 -36q-50 0 -95 18q-35 18 -35 41q0 25 41 42q13 4 18.5 9.5t5.5 13.5q0 24 -6 30t-15 20.5t-15 20.5q-9 18 -29 18q-5 0 -8.5 -1t-6.5 -2.5t-7.5 -4t-7.5 -4.5q-10 -10 -14.5 -14t-9.5 -4q-4 0 -7.5 13t-3.5 35
q0 8 0.5 18.5t1.5 19t3 21t3 20t3 21.5q18 53 59 95q12 11 12 29v12q0 27 18 53q6 6 6 18v6q0 106 77 183q68 77 177 77q106 0 183 -77q37 -42 57 -87t20 -96v-6q0 -12 6 -18q4 -6 7.5 -13t5.5 -13.5t3.5 -13t1.5 -13.5v-12v-12q0 -4 3 -9.5t8 -7.5q22 -22 36 -45t23 -50
q20 -60 12 -100q0 -15 -2 -24.5t-5.5 -14.5t-9.5 -8q-4 0 -9 3.5t-15 13.5q-3 3 -7.5 6t-10.5 4.5t-12 1.5h-5q-21 0 -30 -18q-6 -17 -30 -41q-13 -14 -5 -30q0 -2 0.5 -5t2 -5t3.5 -4t4 -3t4 -3l3 -3q42 -17 42 -42q0 -23 -35.5 -41t-94.5 -18q-40 0 -68 9t-51 27q6 0 -2 3
q-6 3 -9 3zM672 -173q88 0 141 36q59 39 59 94q0 18 -4 32t-13 27q4 0 7.5 0.5t8.5 2t7 3.5q36 12 50 49v1l1 1v1v1l1 1v1v1h1v1v1v1l1 1v1v1v1l1 1v1v1v1h1v1v1v1v1l1 1v1v1v1v1l1 1v1v1v1v1v1l1 1v1v1v1v1v1v1q9 62 -17 142q-15 52 -65 112q0 21 -4.5 40.5t-13.5 42.5
q0 135 -94 230q-95 95 -231 95q-45 0 -85 -10t-76.5 -31.5t-68.5 -53.5q-23 -25 -40 -51t-29.5 -55t-19 -60.5t-6.5 -63.5q-18 -36 -18 -83v-6q-24 -20 -39 -47t-26 -59q-26 -80 -17 -142v-2v-1v-2l1 -1v-2v-2v-1l1 -2v-1v-2l1 -1v-2l1 -1v-2v-2l1 -1v-2l1 -1v-2l1 -1v-2
l1 -1l1 -2v-1l1 -2l1 -1v-2q16 -34 48 -47q2 0 7 -1.5t9.5 -3t6.5 -1.5q-17 -26 -17 -59q0 -9 1.5 -17.5t4.5 -17t8 -17t11 -16t15 -14t19 -12.5q26 -18 60.5 -27t75.5 -9q98 0 147 42h30q20 -15 43.5 -24t48.5 -13.5t56 -4.5z" />
  </font>
</defs>
</svg>
